<?xml version="1.0" encoding="UTF-8" standalone="no"?>
<svg width="48" height="48" viewBox="0 0 48 48" fill="none" xmlns="http://www.w3.org/2000/svg">
  <circle cx="24" cy="24" r="20" fill="white"/>
  <path d="M24 4C12.95 4 4 12.95 4 24C4 35.05 12.95 44 24 44C35.05 44 44 35.05 44 24C44 12.95 35.05 4 24 4Z" fill="white"/>
  <path d="M24 8C15.16 8 8 15.16 8 24C8 32.84 15.16 40 24 40C32.84 40 40 32.84 40 24C40 15.16 32.84 8 24 8ZM24 12C26.21 12 28 13.79 28 16C28 18.21 26.21 20 24 20C21.79 20 20 18.21 20 16C20 13.79 21.79 12 24 12ZM24 36C19.33 36 15.29 33.46 13.16 29.65C13.22 25.82 21 23.8 24 23.8C27 23.8 34.77 25.82 34.83 29.65C32.7 33.46 28.67 36 24 36Z" fill="#4285F4"/>
  <path d="M34.83 29.65C34.77 25.82 27 23.8 24 23.8C21 23.8 13.22 25.82 13.16 29.65C15.29 33.46 19.33 36 24 36C28.67 36 32.7 33.46 34.83 29.65Z" fill="#EA4335"/>
  <path d="M20 16C20 18.21 21.79 20 24 20C26.21 20 28 18.21 28 16C28 13.79 26.21 12 24 12C21.79 12 20 13.79 20 16Z" fill="#FBBC05"/>
</svg>
